<?xml version="1.0" encoding="UTF-8"?>
<svg id="Layer_1" data-name="Layer 1" xmlns="http://www.w3.org/2000/svg" viewBox="0 0 512 512">
  <g>
    <g>
      <path d="M471.37,182.42c8.24-17.22,7.46-37.39-2.08-53.92-9.54-16.53-26.62-27.29-45.65-28.76-19.03-1.47-37.56,6.53-49.54,21.39-11.97,14.86-15.85,34.67-10.37,52.95l-.17.1-55.27,31.91c-4.12,2.38-6.66,6.77-6.65,11.53,0,4.76,2.54,9.15,6.65,11.53,4.12,2.38,9.19,2.38,13.31,0l55.45-32.01c13.09,13.89,32.19,20.44,51.04,17.5,18.86-2.94,35.05-14.99,43.29-32.21ZM411.05,187.84c-8.05-2.16-14.9-7.42-19.06-14.64s-5.27-15.79-3.1-23.83c2.17-8.04,7.46-14.88,14.68-19.03,7.18-4.14,15.71-5.27,23.72-3.12,8.01,2.14,14.84,7.38,18.98,14.56h0c4.19,7.2,5.34,15.77,3.2,23.82-2.14,8.05-7.39,14.92-14.6,19.09-7.21,4.17-15.78,5.3-23.83,3.15Z" style="fill: #fff; stroke-width: 0px;"/>
      <path d="M423.63,412.26c19.03-1.48,36.11-12.24,45.65-28.76,9.54-16.53,10.32-36.7,2.08-53.92-8.24-17.22-24.43-29.26-43.29-32.21-18.86-2.94-37.95,3.6-51.04,17.5l-.17-.1-55.27-31.91c-4.12-2.38-9.19-2.38-13.31,0-4.12,2.38-6.66,6.77-6.65,11.53,0,4.75,2.54,9.15,6.65,11.53l55.45,32.01c-5.49,18.28-1.61,38.09,10.37,52.95,11.98,14.86,30.51,22.86,49.54,21.39ZM388.77,362.74c-2.16-8.05-1.02-16.62,3.15-23.83,4.17-7.21,11.04-12.46,19.09-14.6,8.05-2.14,16.62-.99,23.82,3.2,7.18,4.14,12.42,10.97,14.56,18.98,2.15,8.01,1.02,16.54-3.12,23.72h0c-4.14,7.22-10.99,12.51-19.03,14.68-8.04,2.17-16.61,1.06-23.83-3.1-7.22-4.16-12.48-11.01-14.64-19.06Z" style="fill: #fff; stroke-width: 0px;"/>
    </g>
    <g>
      <path d="M303.74,26.15c-10.79-15.74-28.65-25.15-47.74-25.15s-36.95,9.41-47.74,25.15c-10.79,15.74-13.13,35.79-6.25,53.59,6.88,17.8,22.1,31.07,40.67,35.45v.2s0,63.83,0,63.83c0,4.75,2.54,9.15,6.65,11.53,4.12,2.38,9.19,2.38,13.31,0,4.12-2.38,6.65-6.77,6.65-11.53v-64.03c18.57-4.39,33.79-17.66,40.67-35.45,6.88-17.8,4.55-37.85-6.25-53.59ZM278.27,81.11c-5.89,5.89-13.88,9.19-22.21,9.19-8.33,0-16.31-3.33-22.19-9.23-5.88-5.9-9.16-13.9-9.14-22.23,0-8.29,3.29-16.24,9.16-22.1,5.86-5.86,13.81-9.16,22.1-9.16h0c8.33-.03,16.32,3.26,22.23,9.14,5.9,5.88,9.22,13.86,9.23,22.19,0,8.33-3.3,16.32-9.19,22.21Z" style="fill: #fff; stroke-width: 0px;"/>
      <path d="M208.26,485.85c10.79,15.74,28.65,25.15,47.74,25.15,19.09,0,36.95-9.41,47.74-25.15,10.79-15.74,13.13-35.79,6.25-53.59-6.88-17.8-22.1-31.07-40.67-35.45v-.2s0-63.83,0-63.83c0-4.75-2.54-9.15-6.65-11.53-4.12-2.38-9.19-2.38-13.31,0-4.12,2.38-6.65,6.77-6.65,11.53v64.03c-18.57,4.39-33.79,17.66-40.67,35.45-6.88,17.8-4.55,37.85,6.25,53.59ZM233.73,430.89c5.89-5.89,13.88-9.19,22.21-9.19,8.33,0,16.31,3.33,22.19,9.23,5.88,5.9,9.16,13.9,9.14,22.23,0,8.29-3.29,16.24-9.16,22.1-5.86,5.86-13.81,9.16-22.1,9.16h0c-8.33.03-16.32-3.26-22.23-9.14-5.9-5.88-9.22-13.86-9.23-22.19,0-8.33,3.3-16.32,9.19-22.21Z" style="fill: #fff; stroke-width: 0px;"/>
    </g>
  </g>
  <g>
    <path d="M83.92,214.62c18.86,2.94,37.95-3.6,51.04-17.5l55.45,32.01c4.12,2.38,9.19,2.38,13.31,0,4.12-2.38,6.66-6.77,6.65-11.53,0-4.75-2.54-9.15-6.65-11.53l-55.27-31.91-.17-.1c5.49-18.28,1.61-38.09-10.37-52.95-11.98-14.86-30.51-22.86-49.54-21.39-19.03,1.47-36.11,12.24-45.65,28.76s-10.32,36.7-2.08,53.92c8.24,17.22,24.43,29.26,43.29,32.21ZM77.13,184.7c-7.21-4.17-12.46-11.04-14.6-19.09-2.14-8.05-.99-16.62,3.2-23.82h0c4.14-7.18,10.97-12.42,18.98-14.56,8.01-2.15,16.54-1.02,23.72,3.12,7.23,4.14,12.51,10.99,14.68,19.03,2.17,8.04,1.06,16.61-3.1,23.83-4.16,7.22-11.01,12.48-19.06,14.64-8.04,2.16-16.62,1.02-23.83-3.15Z" style="fill: #7facea; stroke-width: 0px;"/>
    <path d="M137.91,390.88c11.97-14.86,15.85-34.67,10.37-52.95l55.45-32.01c4.12-2.38,6.66-6.77,6.65-11.53,0-4.76-2.54-9.15-6.65-11.53-4.12-2.38-9.19-2.38-13.31,0l-55.27,31.91-.17.1c-13.09-13.89-32.19-20.44-51.04-17.5-18.86,2.94-35.05,14.99-43.29,32.21-8.24,17.22-7.46,37.39,2.08,53.92,9.54,16.53,26.62,27.29,45.65,28.76,19.03,1.48,37.56-6.53,49.54-21.39ZM108.59,381.79c-7.22,4.16-15.79,5.27-23.83,3.1-8.04-2.17-14.88-7.46-19.03-14.68h0c-4.14-7.18-5.27-15.71-3.12-23.72,2.14-8.01,7.38-14.84,14.56-18.98,7.2-4.19,15.77-5.34,23.82-3.2,8.05,2.14,14.92,7.39,19.09,14.6s5.3,15.78,3.15,23.83c-2.16,8.05-7.42,14.9-14.64,19.06Z" style="fill: #7facea; stroke-width: 0px;"/>
  </g>
</svg>