<?xml version="1.0" encoding="UTF-8"?>
<svg id="Layer_1" data-name="Layer 1" xmlns="http://www.w3.org/2000/svg" viewBox="0 0 512 512">
  <defs>
    <style>
      .cls-1 {
        fill: #404040;
      }

      .cls-2 {
        fill: #4695eb;
      }
    </style>
  </defs>
  <path class="cls-2" d="M440.44,71.57c-3.56-3.56-8.4-5.57-13.44-5.57H85c-5.04,0-9.87,2-13.43,5.57-3.56,3.56-5.57,8.4-5.57,13.43v342c0,5.04,2,9.87,5.57,13.43,3.56,3.56,8.4,5.57,13.43,5.57h342c5.04,0,9.87-2,13.44-5.57,3.56-3.56,5.56-8.4,5.56-13.43V85c0-5.04-2-9.87-5.56-13.43ZM83.93,83.93c.28-.28.67-.45,1.07-.45h342c.4,0,.79.16,1.07.44.28.28.45.67.45,1.07v44.86H83.48v-44.86c0-.4.16-.79.44-1.07ZM428.07,428.07c-.28.28-.67.45-1.07.45H85c-.4,0-.79-.16-1.07-.44-.28-.28-.45-.67-.45-1.07V151.22h345.04v275.78c0,.4-.16.79-.44,1.07Z"/>
  <g>
    <path class="cls-2" d="M106.4,116.34h0c-5.9,0-10.68-4.78-10.68-10.68s4.78-10.68,10.68-10.68h0c5.9,0,10.68,4.78,10.68,10.68s-4.78,10.68-10.68,10.68Z"/>
    <path class="cls-2" d="M133.9,116.34h0c-5.9,0-10.68-4.78-10.68-10.68s4.78-10.68,10.68-10.68h0c5.9,0,10.68,4.78,10.68,10.68s-4.78,10.68-10.68,10.68Z"/>
    <path class="cls-2" d="M161.41,116.34h0c-5.9,0-10.68-4.78-10.68-10.68s4.78-10.68,10.68-10.68h0c5.9,0,10.68,4.78,10.68,10.68s-4.78,10.68-10.68,10.68Z"/>
  </g>
  <path class="cls-2" d="M406.27,116.34h-205.94c-5.9,0-10.68-4.78-10.68-10.68s4.78-10.68,10.68-10.68h205.94c5.9,0,10.68,4.78,10.68,10.68s-4.78,10.68-10.68,10.68Z"/>
  <g>
    <path class="cls-1" d="M179.37,259.11c-1.07-3.39-2.72-6.59-4.95-9.6-2.23-3.01-5.24-5.48-9.02-7.42-3.78-1.94-8.58-2.91-14.4-2.91-7.37,0-13.58,1.61-18.62,4.84-2.71,1.73-5.06,3.78-7.06,6.15v-8.73h-15.64v78.56h17.75v-40.37c0-4.8.53-8.74,1.6-11.82,1.07-3.08,2.48-5.5,4.26-7.27,1.77-1.77,3.75-3.02,5.93-3.75s4.39-1.09,6.62-1.09c4.17,0,7.48.9,9.93,2.69,2.45,1.79,4.29,4.09,5.53,6.87,1.24,2.79,2.02,5.69,2.36,8.69.34,3.01.51,5.75.51,8.22v37.82h17.75v-43.86c0-1.89-.16-4.35-.47-7.38-.32-3.03-1.01-6.24-2.07-9.64Z"/>
    <path class="cls-1" d="M257.24,244.67c-5.46-3.61-11.89-5.42-19.31-5.42s-13.74,1.81-18.8,5.42c-1.03.74-2.01,1.53-2.95,2.38v-5.62h-15.49v113.47h17.68v-38.88c.31.23.63.46.95.69,5.19,3.64,11.61,5.46,19.28,5.46,7.22,0,13.53-1.82,18.91-5.46,5.38-3.64,9.55-8.58,12.51-14.84,2.96-6.26,4.44-13.31,4.44-21.17s-1.5-15.04-4.51-21.28c-3.01-6.23-7.24-11.15-12.69-14.77ZM253.74,293.77c-1.43,3.9-3.63,7-6.58,9.27-2.96,2.28-6.72,3.42-11.27,3.42s-8.5-1.08-11.38-3.24c-2.89-2.16-5-5.18-6.33-9.06-1.33-3.88-2-8.37-2-13.46s.67-9.64,2-13.49c1.33-3.86,3.41-6.86,6.22-9.02,2.81-2.16,6.45-3.24,10.91-3.24,4.7,0,8.58,1.15,11.64,3.46,3.05,2.3,5.31,5.41,6.76,9.31,1.45,3.9,2.18,8.23,2.18,12.98s-.72,9.15-2.15,13.06Z"/>
    <path class="cls-1" d="M395.37,247.29c-4.63-5.21-11.29-7.82-19.97-7.82-5.24,0-9.99,1.16-14.26,3.49-4.02,2.19-7.24,5.2-9.69,9.01-1.94-3.62-4.66-6.54-8.16-8.75-3.95-2.5-8.86-3.75-14.73-3.75-5.33,0-10.15,1.18-14.44,3.53-3.3,1.81-6.07,4.13-8.33,6.96v-8.53h-15.49v78.56h17.68v-48.37c0-4.9,1.35-8.87,4.04-11.93,2.69-3.05,6.27-4.58,10.73-4.58s8.24,1.53,10.91,4.58c2.67,3.06,4,7.32,4,12.8v47.5h17.46v-48.37c0-3.44.65-6.41,1.96-8.91,1.31-2.5,3.08-4.39,5.31-5.67,2.23-1.28,4.75-1.93,7.56-1.93,4.56,0,8.17,1.52,10.84,4.55,2.67,3.03,4,7.24,4,12.62v47.72h17.53v-52.15c0-8.49-2.32-15.34-6.95-20.55Z"/>
  </g>
</svg>