<?xml version="1.0" encoding="UTF-8"?>
<svg id="Layer_1" data-name="Layer 1" xmlns="http://www.w3.org/2000/svg" viewBox="0 0 512 512">
  <defs>
    <style>
      .cls-1 {
        fill: #fff;
      }

      .cls-2 {
        fill: #7facea;
      }
    </style>
  </defs>
  <path class="cls-2" d="M281.41,19.39c-5.75-8.38-15.25-13.39-25.41-13.39s-19.67,5.01-25.41,13.39c-5.75,8.38-6.99,19.05-3.32,28.53,3.66,9.48,11.76,16.54,21.65,18.87v.11s0,33.98,0,33.98c0,2.53,1.35,4.87,3.54,6.14,2.19,1.27,4.89,1.27,7.09,0,2.19-1.26,3.54-3.6,3.54-6.14v-34.08c9.89-2.34,17.99-9.4,21.65-18.87,3.66-9.48,2.42-20.15-3.32-28.53ZM267.86,48.64c-3.14,3.14-7.39,4.89-11.82,4.89-4.43,0-8.68-1.77-11.81-4.91-3.13-3.14-4.88-7.4-4.86-11.83,0-4.41,1.75-8.65,4.87-11.76,3.12-3.12,7.35-4.87,11.76-4.87h0c4.43-.01,8.69,1.74,11.83,4.86,3.14,3.13,4.91,7.38,4.91,11.81,0,4.43-1.75,8.69-4.89,11.82Z"/>
  <path class="cls-2" d="M433.21,78.79c-7.25-7.25-17.61-10.46-27.69-8.57-10.08,1.89-18.58,8.62-22.72,18.01-4.14,9.38-3.38,20.2,2.02,28.92l-24.15,24.15c-1.32,1.34-2.06,3.14-2.06,5.02s.74,3.68,2.06,5.02c1.32,1.33,3.12,2.08,4.99,2.09h0c1.89,0,3.71-.76,5.05-2.09l24.15-24.15c8.72,5.4,19.54,6.16,28.92,2.02,9.38-4.14,16.12-12.64,18.01-22.72,1.89-10.08-1.32-20.44-8.57-27.69ZM422.8,112.64c-3.13,3.14-7.38,4.9-11.81,4.9s-8.68-1.76-11.81-4.9c-3.13-3.13-4.89-7.39-4.88-11.82,0-4.43,1.77-8.68,4.91-11.81h0c3.12-3.13,7.36-4.89,11.78-4.89s8.66,1.76,11.78,4.89c3.14,3.13,4.91,7.37,4.91,11.81,0,4.43-1.75,8.68-4.88,11.82Z"/>
  <path class="cls-2" d="M505.91,253.63c-.6-7.74-4.09-14.96-9.78-20.23-5.69-5.27-13.16-8.2-20.92-8.21-6.94.02-13.67,2.36-19.11,6.67-5.44,4.3-9.28,10.31-10.89,17.06h-34.08c-2.53,0-4.87,1.35-6.14,3.54-1.27,2.19-1.27,4.89,0,7.09,1.26,2.19,3.6,3.54,6.14,3.54h34.08c1.78,7.55,6.35,14.15,12.79,18.48,6.44,4.33,14.27,6.07,21.94,4.88,7.67-1.19,14.6-5.23,19.41-11.32,4.82-6.08,7.16-13.76,6.56-21.49ZM486.96,267.75c-3.12,3.12-7.34,4.88-11.75,4.89-4.41,0-8.65-1.75-11.76-4.87-3.12-3.12-4.87-7.35-4.87-11.76s1.75-8.65,4.87-11.76c3.12-3.12,7.35-4.87,11.76-4.87s8.65,1.75,11.76,4.87c3.12,3.12,4.87,7.35,4.87,11.76-.01,4.41-1.77,8.63-4.89,11.75Z"/>
  <path class="cls-2" d="M434.46,391.05c-5.84-7.01-14.49-11.06-23.61-11.06h-.05c-5.7.04-11.27,1.65-16.1,4.67l-24.15-24.15c-1.79-1.79-4.41-2.49-6.86-1.84s-4.36,2.57-5.02,5.02c-.66,2.45.04,5.06,1.84,6.86l24.15,24.15c-4.75,7.78-5.8,17.28-2.85,25.91,2.95,8.63,9.57,15.51,18.09,18.76,8.52,3.26,18.04,2.56,26-1.91,7.95-4.46,13.51-12.23,15.16-21.2,1.65-8.97-.76-18.21-6.6-25.22ZM427.76,411.01c-.05,4.42-1.84,8.65-4.99,11.75l-.21-.16c-3.76,3.55-8.96,5.15-14.07,4.33-5.11-.82-9.54-3.98-12-8.53-2.46-4.55-2.65-9.99-.53-14.71,2.12-4.72,6.32-8.19,11.35-9.38,5.04-1.19,10.34.03,14.35,3.3,4.01,3.27,6.27,8.22,6.11,13.4Z"/>
  <path class="cls-2" d="M284.74,464.08c-3.66-9.48-11.76-16.54-21.65-18.87h0v-34.08c0-2.53-1.35-4.87-3.54-6.14-2.19-1.27-4.89-1.27-7.09,0-2.19,1.26-3.54,3.6-3.54,6.14v34.08c-9.89,2.34-17.99,9.4-21.65,18.87-3.66,9.48-2.42,20.15,3.32,28.53,5.75,8.38,15.25,13.39,25.41,13.39s19.67-5.01,25.41-13.39c5.75-8.38,6.99-19.05,3.32-28.53ZM267.76,486.97c-3.12,3.12-7.35,4.87-11.76,4.87h0c-4.43.01-8.69-1.74-11.83-4.86-3.14-3.13-4.91-7.38-4.91-11.81s1.75-8.69,4.89-11.82c3.14-3.14,7.39-4.89,11.82-4.89,4.43,0,8.68,1.77,11.81,4.91,3.13,3.14,4.88,7.4,4.86,11.83,0,4.41-1.75,8.65-4.87,11.76Z"/>
  <path class="cls-2" d="M153.17,363.85c-.66-2.45-2.57-4.36-5.02-5.02-2.45-.66-5.06.04-6.86,1.84h0s-24.15,24.15-24.15,24.15c-8.64-5.29-19.33-5.99-28.59-1.88-9.26,4.11-15.91,12.52-17.77,22.48-1.87,9.96,1.28,20.2,8.42,27.39,7.19,7.14,17.43,10.29,27.39,8.42,9.96-1.87,18.36-8.51,22.48-17.77,4.11-9.26,3.41-19.95-1.88-28.59l24.15-24.15c1.79-1.79,2.49-4.41,1.84-6.86ZM112.79,422.76c-3.13,3.12-7.37,4.87-11.78,4.87s-8.65-1.75-11.78-4.87c-3.11-3.12-4.86-7.36-4.86-11.76,0-4.41,1.76-8.64,4.88-11.76,3.12-3.12,7.35-4.87,11.76-4.87s8.64,1.75,11.76,4.87c3.12,3.12,4.88,7.35,4.88,11.76,0,4.41-1.74,8.64-4.86,11.76Z"/>
  <path class="cls-2" d="M107.01,252.45c-1.26-2.19-3.6-3.54-6.14-3.54h-34.08c-2.34-9.89-9.4-17.99-18.87-21.65-9.48-3.66-20.15-2.42-28.53,3.32-8.38,5.75-13.39,15.25-13.39,25.41s5.01,19.67,13.39,25.41c8.38,5.75,19.05,6.99,28.53,3.32,9.48-3.66,16.54-11.76,18.87-21.65h34.08c2.53,0,4.87-1.35,6.14-3.54,1.27-2.19,1.27-4.89,0-7.09ZM48.59,267.78c-3.13,3.12-7.38,4.87-11.8,4.85h0c-4.41-.01-8.63-1.78-11.74-4.9-3.11-3.13-4.85-7.36-4.84-11.77.01-4.41,1.77-8.64,4.89-11.75,3.12-3.11,7.36-4.86,11.76-4.85,4.41,0,8.64,1.76,11.75,4.88,3.12,3.12,4.87,7.35,4.87,11.76s-1.76,8.66-4.89,11.79Z"/>
  <path class="cls-2" d="M151.49,141.29l-24.32-24.15c5.29-8.64,5.99-19.33,1.88-28.59-4.11-9.26-12.52-15.91-22.48-17.77-9.96-1.87-20.2,1.28-27.39,8.42-5.78,5.78-9.03,13.62-9.03,21.79,0,8.17,3.25,16.01,9.03,21.79,5.78,5.78,13.62,9.02,21.8,9.02h.21c5.69,0,11.27-1.61,16.1-4.62l24.15,24.15c1.79,1.79,4.41,2.49,6.86,1.84,2.45-.66,4.36-2.57,5.02-5.02.66-2.45-.04-5.06-1.84-6.86ZM112.97,112.76c-3.12,3.12-7.35,4.88-11.76,4.88-4.41,0-8.64-1.74-11.76-4.86-3.12-3.13-4.87-7.37-4.87-11.78s1.75-8.65,4.87-11.78c3.12-3.11,7.36-4.86,11.76-4.86,4.41,0,8.64,1.76,11.76,4.88,3.12,3.12,4.87,7.35,4.87,11.76s-1.75,8.64-4.87,11.76Z"/>
  <g>
    <path class="cls-1" d="M201.88,226.71c5.56,0,10.89-2.47,14.82-6.87,1.77-2.17,1.69-5.52-.16-7.59-1.86-2.09-4.84-2.18-6.8-.21-4.34,4.85-11.38,4.84-15.72-.01-2.08-2.33-3.24-5.49-3.24-8.78s1.17-6.45,3.26-8.77c.99-1.02,1.58-2.46,1.61-3.97.04-1.51-.49-2.97-1.45-4.04-.95-1.07-2.26-1.65-3.61-1.61-1.35.04-2.64.7-3.54,1.83-6.01,6.69-7.81,16.79-4.56,25.55,3.24,8.76,10.9,14.48,19.39,14.48h0Z"/>
    <path class="cls-1" d="M219,263.71c-2.79-5.41-7.39-9.37-12.79-10.97s-11.16-.73-15.98,2.42c-2.37,1.52-3.18,4.89-1.83,7.54,1.36,2.66,4.39,3.57,6.75,2.05,5.26-3,11.71-.86,14.65,4.87,2.94,5.72,1.35,13.02-3.6,16.59-1.95,1.26-2.9,3.81-2.32,6.24s2.56,4.1,4.8,4.08h0c.86.01,1.7-.23,2.45-.71,4.87-3.07,8.44-8.18,9.92-14.22,1.48-6.03.75-12.46-2.05-17.88Z"/>
    <path class="cls-1" d="M250.68,313.9v-168.36c0-.76-.15-1.49-.44-2.18h0c-1.99-12.58-12.4-21.87-24.87-21.87s-22.22,8.81-24.71,20.48c-6.76-1.47-13.78.08-19.54,4.31h0c-7.04,5.11-11.38,13.49-11.88,22.15-4.42.44-8.66,2.09-12.36,4.8h0c-10.01,7.31-14.22,20.63-10.82,31.86-10.88,8.02-14.95,23.67-9.61,36.97-5.42,4.77-8.94,11.74-9.79,19.4-1.19,10.44,2.54,20.52,9.36,26.34-2.95,7.52-2.79,16.58.7,24.48,3.17,7.4,9,12.96,16.04,15.28-.28,5.23.67,10.43,2.75,15.11,4.31,9.78,12.73,15.93,21.58,16.29,2.02,9.27,7.88,16.92,15.77,20.57,5.33,2.46,11.3,2.54,16.67.2h0c4.9,6.6,11.94,10.33,18.98,10.33h0c3.31,0,6.58-.84,9.57-2.47,5.59-3.08,9.69-8.73,11.5-15.73.7-.98,1.07-2.19,1.07-3.45v-53.92c0-.2.01-.4,0-.6ZM240.41,367.33h0c-.84,4.7-3.26,8.47-6.68,10.35-6.31,3.47-14.36,0-18.34-7.89-.77-1.33-2-2.26-3.4-2.55-.31-.08-.63-.11-.95-.11h.01c-1.13,0-2.23.4-3.16,1.11-.33.29-.68.53-1.04.76-3.24,1.73-6.98,1.82-10.3.27-3.77-1.73-6.82-4.97-8.58-9.07-.38-.87-.69-1.76-.95-2.68,3.68-1.17,8.52-3.57,12.24-8.45,4.39-5.77,6.15-13.41,5.21-22.7-.31-3.04-2.75-5.21-5.46-4.88-1.3.17-2.49.9-3.31,2.05-.82,1.13-1.19,2.6-1.05,4.05.61,6.12-.39,10.92-2.87,14.25-3.9,5.2-10.52,5.76-10.7,5.76-.45.01-.89.09-1.3.23-6.05.97-12.27-3.04-15.33-9.99-1.86-4.09-2.28-8.81-1.17-13.22.43-1.63.16-3.39-.73-4.77-.9-1.38-2.3-2.22-3.82-2.29h.02c-5.45-.26-10.46-4.12-13.09-10.11-2.63-5.96-2.31-12.86.79-17.76,1.78-1.57,9.25-7.67,15.88-5.93,4.09,1.06,7.49,5.14,10.12,12.13.78,2.06,2.58,3.39,4.57,3.39h0c.66,0,1.3-.15,1.91-.43,1.2-.57,2.17-1.65,2.67-3,.49-1.36.49-2.88-.03-4.23-3.93-10.47-9.65-16.74-17-18.64-9.08-2.33-17.83,3.02-22.18,6.35-4.28-3.44-6.63-9.81-5.87-16.45.61-5.28,3.13-9.93,6.76-12.67,3.15,1.8,8.62,4.33,14.52,4.33h0c2.31.01,4.6-.42,6.77-1.27h0c5.89-2.37,10.07-7.74,12.43-15.99.76-2.87-.69-5.89-3.23-6.8s-5.29.6-6.18,3.42c-1.39,4.86-3.46,7.79-6.33,8.95-4.9,1.97-11.67-1.29-14.62-3.18-2.84-4.56-3.44-10.74-1.52-16.39,1.6-4.84,4.96-8.68,9.26-10.56,1.4-.6,2.48-1.87,2.94-3.46.46-1.6.25-3.34-.58-4.74h0c-4.04-6.95-1.55-16.82,5.57-22,3.37-2.54,7.46-3.57,11.48-2.91,1.6.28,3.23-.34,4.35-1.66,1.11-1.32,1.58-3.17,1.24-4.95-1.2-6.44,1.69-13.45,7.16-17.46,5.09-3.71,11.46-4.11,16.21-1.02.02.01.04.02.06.03,1.84,1.4,13.69,11.19,6.75,27.5-.74,1.72-.63,3.74.28,5.34.92,1.61,2.5,2.58,4.2,2.57h0c1.91,0,3.64-1.23,4.46-3.16,8.08-18.95-1.09-33.56-8.49-40.06.44-7.91,7.18-14.21,15.39-14.21s14.48,5.84,15.24,13.62c.04.31.09.63.17.93v54.27c-.64-.05-1.23-.23-1.79-.53-2.77-1.56-4.46-6-4.87-7.58-.75-2.94-3.48-4.65-6.11-3.82-2.63.83-4.16,3.89-3.42,6.83h0c.27,1.07,2.8,10.38,9.9,14.41,1.95,1.11,4.09,1.71,6.28,1.75v91.24c-1.71-.75-3.63-1.29-5.76-1.44-5.9-.41-11.56,2.29-16.87,8.03-.98,1-1.56,2.41-1.6,3.9-.05,1.49.46,2.94,1.38,4,.93,1.08,2.2,1.69,3.53,1.69,1.33.01,2.62-.59,3.55-1.65,3.21-3.47,6.4-5.18,9.32-4.96,2.82.17,5.14,1.95,6.44,3.21v49.62c-.16.4-.29.83-.37,1.27Z"/>
  </g>
  <g>
    <path class="cls-1" d="M309.26,226.71c-5.56,0-10.89-2.47-14.82-6.87-1.77-2.17-1.69-5.52.16-7.59,1.86-2.09,4.84-2.18,6.8-.21,4.34,4.85,11.38,4.84,15.72-.01,2.08-2.33,3.24-5.49,3.24-8.78s-1.17-6.45-3.26-8.77c-.99-1.02-1.58-2.46-1.61-3.97-.04-1.51.49-2.97,1.45-4.04.95-1.07,2.26-1.65,3.61-1.61,1.35.04,2.64.7,3.54,1.83,6.01,6.69,7.81,16.79,4.56,25.55-3.24,8.76-10.9,14.48-19.39,14.48h0Z"/>
    <path class="cls-1" d="M292.14,263.71c2.79-5.41,7.39-9.37,12.79-10.97s11.16-.73,15.98,2.42c2.37,1.52,3.18,4.89,1.83,7.54-1.36,2.66-4.39,3.57-6.75,2.05-5.26-3-11.71-.86-14.65,4.87-2.94,5.72-1.35,13.02,3.6,16.59,1.95,1.26,2.9,3.81,2.32,6.24-.59,2.42-2.56,4.1-4.8,4.08h0c-.86.01-1.7-.23-2.45-.71-4.87-3.07-8.44-8.18-9.92-14.22-1.48-6.03-.75-12.46,2.05-17.88Z"/>
    <path class="cls-1" d="M260.46,314.49v53.92c0,1.26.38,2.47,1.07,3.45,1.81,7,5.91,12.65,11.5,15.73,2.98,1.63,6.26,2.48,9.57,2.47h0c7.04,0,14.07-3.72,18.98-10.33h0c5.37,2.33,11.34,2.26,16.67-.2,7.89-3.65,13.75-11.3,15.77-20.57,8.85-.36,17.28-6.5,21.58-16.29,2.08-4.68,3.02-9.88,2.75-15.11,7.04-2.31,12.87-7.87,16.04-15.28,3.48-7.91,3.65-16.97.7-24.48,6.82-5.83,10.55-15.9,9.36-26.34-.85-7.66-4.37-14.63-9.79-19.4,5.34-13.3,1.27-28.95-9.61-36.97,3.4-11.23-.82-24.55-10.82-31.85h0c-3.7-2.72-7.95-4.37-12.36-4.81-.5-8.66-4.83-17.03-11.88-22.16h0c-5.76-4.23-12.77-5.77-19.54-4.3-2.49-11.67-12.62-20.48-24.71-20.48-12.46,0-22.88,9.3-24.87,21.88h0c-.29.68-.44,1.41-.44,2.17v168.36c-.01.2,0,.4,0,.6ZM270.37,366.06v-49.62c1.31-1.27,3.62-3.05,6.44-3.21,2.92-.22,6.11,1.49,9.32,4.96.93,1.06,2.22,1.66,3.55,1.65,1.33,0,2.61-.61,3.53-1.69.93-1.07,1.43-2.51,1.38-4-.04-1.49-.62-2.9-1.6-3.9-5.31-5.74-10.97-8.44-16.87-8.03-2.12.15-4.05.69-5.76,1.44v-91.24c2.19-.04,4.34-.65,6.28-1.75,7.1-4.03,9.63-13.34,9.9-14.41h0c.74-2.94-.8-5.99-3.42-6.83-2.63-.82-5.36.89-6.11,3.82-.42,1.58-2.11,6.03-4.87,7.58-.56.3-1.15.48-1.79.53v-54.27c.08-.3.13-.62.17-.93.76-7.78,7.32-13.62,15.24-13.62s14.95,6.3,15.39,14.21c-7.4,6.5-16.57,21.11-8.49,40.06.82,1.92,2.55,3.16,4.46,3.16h0c1.7,0,3.28-.96,4.2-2.57.91-1.6,1.01-3.61.28-5.34-6.95-16.31,4.91-26.1,6.75-27.5.02-.01.04-.02.06-.03,4.75-3.09,11.12-2.69,16.21,1.02,5.47,4,8.37,11.02,7.16,17.46-.34,1.78.13,3.62,1.24,4.95,1.11,1.31,2.75,1.93,4.35,1.66,4.02-.66,8.11.38,11.48,2.91,7.12,5.18,9.61,15.05,5.57,22.02h0c-.83,1.39-1.03,3.12-.58,4.73.47,1.59,1.54,2.86,2.94,3.46,4.3,1.88,7.66,5.73,9.26,10.56,1.93,5.66,1.33,11.84-1.52,16.39-2.95,1.89-9.72,5.15-14.62,3.18-2.86-1.16-4.93-4.09-6.33-8.95-.89-2.82-3.63-4.34-6.18-3.42s-3.99,3.94-3.23,6.8c2.37,8.25,6.55,13.62,12.43,15.98h0c2.18.86,4.47,1.29,6.77,1.28h0c5.9,0,11.37-2.53,14.52-4.33,3.63,2.75,6.15,7.4,6.76,12.67.76,6.64-1.59,13.01-5.87,16.45-4.35-3.34-13.09-8.68-22.18-6.35-7.35,1.89-13.07,8.16-17,18.64-.52,1.35-.52,2.87-.03,4.23.5,1.36,1.46,2.44,2.67,3,.61.29,1.25.43,1.91.43h0c1.99,0,3.79-1.33,4.57-3.39,2.63-6.99,6.03-11.07,10.12-12.13,6.62-1.74,14.09,4.36,15.88,5.93,3.1,4.89,3.42,11.8.79,17.76-2.63,5.98-7.64,9.85-13.09,10.1h.02c-1.52.08-2.92.92-3.82,2.3-.89,1.38-1.15,3.14-.73,4.77,1.1,4.41.69,9.13-1.17,13.22-3.06,6.95-9.28,10.96-15.33,9.99-.41-.14-.85-.22-1.3-.23-.18,0-6.8-.56-10.7-5.76-2.49-3.34-3.48-8.14-2.87-14.25.14-1.45-.24-2.91-1.05-4.05-.83-1.15-2.01-1.88-3.31-2.05-2.72-.33-5.15,1.85-5.46,4.88-.93,9.3.83,16.93,5.21,22.7,3.72,4.88,8.56,7.27,12.24,8.45-.25.92-.57,1.81-.95,2.68-1.76,4.1-4.81,7.34-8.58,9.07-3.31,1.56-7.05,1.47-10.3-.27-.37-.22-.72-.47-1.04-.76-.93-.71-2.03-1.1-3.16-1.11h0s0,0,0,0c-.33,0-.65.03-.95.11-1.4.29-2.64,1.21-3.4,2.55-3.98,7.89-12.04,11.36-18.34,7.89-3.42-1.88-5.85-5.65-6.68-10.34h0c-.08-.44-.21-.88-.37-1.28Z"/>
  </g>
</svg>