<?xml version="1.0" encoding="UTF-8"?>
<svg id="Layer_1" data-name="Layer 1" xmlns="http://www.w3.org/2000/svg" viewBox="0 0 512 512">
  <defs>
    <style>
      .cls-1 {
        fill: #404040;
      }

      .cls-2 {
        fill: #4695eb;
      }
    </style>
  </defs>
  <path class="cls-2" d="M427,83.48c.4,0,.79.16,1.07.44.28.28.45.67.45,1.07v342c0,.4-.16.79-.44,1.07-.28.28-.67.45-1.07.45H85c-.4,0-.79-.16-1.07-.44-.28-.28-.45-.67-.45-1.07V85c0-.4.16-.79.44-1.07.28-.28.67-.45,1.07-.45h342M427,66H85c-5.04,0-9.87,2-13.43,5.57-3.56,3.56-5.57,8.4-5.57,13.43v342c0,5.04,2,9.87,5.57,13.43,3.56,3.56,8.4,5.57,13.43,5.57h342c5.04,0,9.87-2,13.43-5.57,3.56-3.56,5.57-8.4,5.57-13.43V85c0-5.04-2-9.87-5.57-13.43-3.56-3.56-8.4-5.57-13.43-5.57h0Z"/>
  <g>
    <path class="cls-1" d="M145.55,330.4c-2.73,0-5.47-1.04-7.55-3.13-4.17-4.17-4.17-10.94,0-15.11l72.28-72.28-72.28-72.28c-4.17-4.17-4.17-10.94,0-15.11,4.17-4.17,10.94-4.17,15.11,0l79.83,79.83c4.17,4.17,4.17,10.94,0,15.11l-79.83,79.83c-2.09,2.09-4.82,3.13-7.55,3.13Z"/>
    <path class="cls-1" d="M374.63,331.56h-124.36c-5.9,0-10.68-4.78-10.68-10.68s4.78-10.68,10.68-10.68h124.36c5.9,0,10.68,4.78,10.68,10.68s-4.78,10.68-10.68,10.68Z"/>
  </g>
</svg>