<?xml version="1.0" encoding="UTF-8"?>
<svg id="Layer_1" data-name="Layer 1" xmlns="http://www.w3.org/2000/svg" viewBox="0 0 512 512">
  <defs>
    <style>
      .cls-1 {
        fill: #fff;
      }

      .cls-2 {
        fill: #7facea;
      }
    </style>
  </defs>
  <path class="cls-2" d="M281.41,19.39c-5.75-8.38-15.25-13.39-25.41-13.39s-19.67,5.01-25.41,13.39c-5.75,8.38-6.99,19.05-3.32,28.53,3.66,9.48,11.76,16.54,21.65,18.87v.11s0,33.98,0,33.98c0,2.53,1.35,4.87,3.54,6.14,2.19,1.27,4.89,1.27,7.09,0,2.19-1.26,3.54-3.6,3.54-6.14v-34.08c9.89-2.34,17.99-9.4,21.65-18.87,3.66-9.48,2.42-20.15-3.32-28.53ZM267.86,48.64c-3.14,3.14-7.39,4.89-11.82,4.89-4.43,0-8.68-1.77-11.81-4.91-3.13-3.14-4.88-7.4-4.86-11.83,0-4.41,1.75-8.65,4.87-11.76,3.12-3.12,7.35-4.87,11.76-4.87h0c4.43-.01,8.69,1.74,11.83,4.86,3.14,3.13,4.91,7.38,4.91,11.81,0,4.43-1.75,8.69-4.89,11.82Z"/>
  <path class="cls-2" d="M433.21,78.79c-7.25-7.25-17.61-10.46-27.69-8.57-10.08,1.89-18.58,8.62-22.72,18.01-4.14,9.38-3.38,20.2,2.02,28.92l-24.15,24.15c-1.32,1.34-2.06,3.14-2.06,5.02s.74,3.68,2.06,5.02c1.32,1.33,3.12,2.08,4.99,2.09h0c1.89,0,3.71-.76,5.05-2.09l24.15-24.15c8.72,5.4,19.54,6.16,28.92,2.02,9.38-4.14,16.12-12.64,18.01-22.72,1.89-10.08-1.32-20.44-8.57-27.69ZM422.8,112.64c-3.13,3.14-7.38,4.9-11.81,4.9s-8.68-1.76-11.81-4.9c-3.13-3.13-4.89-7.39-4.88-11.82,0-4.43,1.77-8.68,4.91-11.81h0c3.12-3.13,7.36-4.89,11.78-4.89s8.66,1.76,11.78,4.89c3.14,3.13,4.91,7.37,4.91,11.81,0,4.43-1.75,8.68-4.88,11.82Z"/>
  <path class="cls-2" d="M505.91,253.63c-.6-7.74-4.09-14.96-9.78-20.23-5.69-5.27-13.16-8.2-20.92-8.21-6.94.02-13.67,2.36-19.11,6.67-5.44,4.3-9.28,10.31-10.89,17.06h-34.08c-2.53,0-4.87,1.35-6.14,3.54-1.27,2.19-1.27,4.89,0,7.09,1.26,2.19,3.6,3.54,6.14,3.54h34.08c1.78,7.55,6.35,14.15,12.79,18.48,6.44,4.33,14.27,6.07,21.94,4.88,7.67-1.19,14.6-5.23,19.41-11.32,4.82-6.08,7.16-13.76,6.56-21.49ZM486.96,267.75c-3.12,3.12-7.34,4.88-11.75,4.89-4.41,0-8.65-1.75-11.76-4.87-3.12-3.12-4.87-7.35-4.87-11.76s1.75-8.65,4.87-11.76c3.12-3.12,7.35-4.87,11.76-4.87s8.65,1.75,11.76,4.87c3.12,3.12,4.87,7.35,4.87,11.76-.01,4.41-1.77,8.63-4.89,11.75Z"/>
  <path class="cls-2" d="M434.46,391.05c-5.84-7.01-14.49-11.06-23.61-11.06h-.05c-5.7.04-11.27,1.65-16.1,4.67l-24.15-24.15c-1.79-1.79-4.41-2.49-6.86-1.84s-4.36,2.57-5.02,5.02.04,5.06,1.84,6.86l24.15,24.15c-4.75,7.78-5.8,17.28-2.85,25.91,2.95,8.63,9.57,15.51,18.09,18.76,8.52,3.26,18.04,2.56,26-1.91,7.95-4.46,13.51-12.23,15.16-21.2,1.65-8.97-.76-18.21-6.6-25.22ZM427.76,411.01c-.05,4.42-1.84,8.65-4.99,11.75l-.21-.16c-3.76,3.55-8.96,5.15-14.07,4.33-5.11-.82-9.54-3.98-12-8.53-2.46-4.55-2.65-9.99-.53-14.71,2.12-4.72,6.32-8.19,11.35-9.38,5.04-1.19,10.34.03,14.35,3.3,4.01,3.27,6.27,8.22,6.11,13.4Z"/>
  <path class="cls-2" d="M284.74,464.08c-3.66-9.48-11.76-16.54-21.65-18.87h0v-34.08c0-2.53-1.35-4.87-3.54-6.14-2.19-1.27-4.89-1.27-7.09,0-2.19,1.26-3.54,3.6-3.54,6.14v34.08c-9.89,2.34-17.99,9.4-21.65,18.87-3.66,9.48-2.42,20.15,3.32,28.53,5.75,8.38,15.25,13.39,25.41,13.39s19.67-5.01,25.41-13.39c5.75-8.38,6.99-19.05,3.32-28.53ZM267.76,486.97c-3.12,3.12-7.35,4.87-11.76,4.87h0c-4.43.01-8.69-1.74-11.83-4.86-3.14-3.13-4.91-7.38-4.91-11.81s1.75-8.69,4.89-11.82c3.14-3.14,7.39-4.89,11.82-4.89,4.43,0,8.68,1.77,11.81,4.91,3.13,3.14,4.88,7.4,4.86,11.83,0,4.41-1.75,8.65-4.87,11.76Z"/>
  <path class="cls-2" d="M153.17,363.85c-.66-2.45-2.57-4.36-5.02-5.02-2.45-.66-5.06.04-6.86,1.84h0s-24.15,24.15-24.15,24.15c-8.64-5.29-19.33-5.99-28.59-1.88-9.26,4.11-15.91,12.52-17.77,22.48-1.87,9.96,1.28,20.2,8.42,27.39,7.19,7.14,17.43,10.29,27.39,8.42,9.96-1.87,18.36-8.51,22.48-17.77,4.11-9.26,3.41-19.95-1.88-28.59l24.15-24.15c1.79-1.79,2.49-4.41,1.84-6.86ZM112.79,422.76c-3.13,3.12-7.37,4.87-11.78,4.87s-8.65-1.75-11.78-4.87c-3.11-3.12-4.86-7.36-4.86-11.76,0-4.41,1.76-8.64,4.88-11.76,3.12-3.12,7.35-4.87,11.76-4.87s8.64,1.75,11.76,4.87c3.12,3.12,4.88,7.35,4.88,11.76,0,4.41-1.74,8.64-4.86,11.76Z"/>
  <path class="cls-2" d="M107.01,252.45c-1.26-2.19-3.6-3.54-6.14-3.54h-34.08c-2.34-9.89-9.4-17.99-18.87-21.65-9.48-3.66-20.15-2.42-28.53,3.32-8.38,5.75-13.39,15.25-13.39,25.41s5.01,19.67,13.39,25.41c8.38,5.75,19.05,6.99,28.53,3.32,9.48-3.66,16.54-11.76,18.87-21.65h34.08c2.53,0,4.87-1.35,6.14-3.54,1.27-2.19,1.27-4.89,0-7.09ZM48.59,267.78c-3.13,3.12-7.38,4.87-11.8,4.85h0c-4.41-.01-8.63-1.78-11.74-4.9-3.11-3.13-4.85-7.36-4.84-11.77s1.77-8.64,4.89-11.75c3.12-3.11,7.36-4.86,11.76-4.85,4.41,0,8.64,1.76,11.75,4.88,3.12,3.12,4.87,7.35,4.87,11.76s-1.76,8.66-4.89,11.79Z"/>
  <path class="cls-2" d="M151.49,141.29l-24.32-24.15c5.29-8.64,5.99-19.33,1.88-28.59-4.11-9.26-12.52-15.91-22.48-17.77-9.96-1.87-20.2,1.28-27.39,8.42-5.78,5.78-9.03,13.62-9.03,21.79,0,8.17,3.25,16.01,9.03,21.79,5.78,5.78,13.62,9.02,21.8,9.02h.21c5.69,0,11.27-1.61,16.1-4.62l24.15,24.15c1.79,1.79,4.41,2.49,6.86,1.84,2.45-.66,4.36-2.57,5.02-5.02.66-2.45-.04-5.06-1.84-6.86ZM112.97,112.76c-3.12,3.12-7.35,4.88-11.76,4.88-4.41,0-8.64-1.74-11.76-4.86-3.12-3.13-4.87-7.37-4.87-11.78s1.75-8.65,4.87-11.78c3.12-3.11,7.36-4.86,11.76-4.86,4.41,0,8.64,1.76,11.76,4.88,3.12,3.12,4.87,7.35,4.87,11.76s-1.75,8.64-4.87,11.76Z"/>
  <path class="cls-1" d="M251.46,136.48c-43.04,0-88.81,13.02-88.81,37.03v178.14c0,24.24,45.76,37.32,88.81,37.32s88.81-13.08,88.81-37.32v-178.14c0-24.01-45.76-37.03-88.81-37.03ZM329.1,262.26v.12c-.06,12.32-33.27,26.04-77.64,26.04s-77.59-13.77-77.64-26.04v-25.86c16.2,12.15,47.56,18.57,77.64,18.57s61.44-6.42,77.64-18.57v25.75ZM173.81,281.12c16.2,12.15,47.56,18.51,77.64,18.51s61.44-6.42,77.64-18.51v25.86c-.06,12.32-33.27,26.04-77.64,26.04s-77.59-13.77-77.64-26.04v-25.86ZM329.1,217.65v.12c-.06,12.27-33.27,26.04-77.64,26.04s-77.59-13.77-77.64-26.04v-25.63c16.2,12.03,47.56,18.4,77.64,18.4s61.44-6.36,77.64-18.4v25.51ZM251.46,147.71c48.14,0,77.64,15.04,77.64,25.8s-29.56,25.8-77.64,25.8-77.64-15.04-77.64-25.8,29.56-25.8,77.64-25.8ZM251.46,377.74c-44.43,0-77.64-13.77-77.64-26.09v-25.92c16.2,12.15,47.56,18.51,77.64,18.51s61.44-6.42,77.64-18.51v25.92c0,12.32-33.21,26.09-77.64,26.09Z"/>
</svg>