<?xml version="1.0" encoding="UTF-8"?>
<svg id="Layer_1" data-name="Layer 1" xmlns="http://www.w3.org/2000/svg" viewBox="0 0 512 512">
  <path d="M409.27,231.47c-7.64-.67-16.38-.38-22.03-4.88h-54.49c-10.31,0-19.65-6.1-23.8-15.54-.12-.28-.22-.56-.33-.84l-2.15,2.34c2.59,3.28,4.94,6.86,7.01,10.77,15.07,26.87,8.54,59.35-10.79,80.38h1.43c14.34,0,26,11.66,26,26s-11.66,26-26,26h-140.45c-10.31,0-19.65-6.1-23.8-15.54-4.15-9.44-2.33-20.45,4.65-28.04l39.06-42.56c-2.64-12.64-1.76-26.21,3.7-39.34,4.5-11.4,11.41-20.61,19.79-27.57h-35.3c-14.34,0-26-11.66-26-26s11.66-26,26-26h132.36c10.31,0,19.65,6.1,23.8,15.54.12.28.22.56.33.84l34.1-37.16h-19.69c-2.31,1.86-4.59,3.92-6.87,5.91-5.15,4.23-12.37,4.85-18.15,1.55-8.94-4.97-18.42-8.92-28.26-11.77-12.76-3.45-11.87-16.5-12.83-26.98-.85-8.57-8.05-15.1-16.66-15.11h-15.67c-8.67,0-15.9,6.62-16.7,15.26l-1.17,13.07c-.66,6.56-5.3,12.04-11.66,13.8-9.83,2.87-19.3,6.86-28.22,11.86-11.01,6.24-19.22-2.24-27.01-8.98h0c-6.67-6.35-17.14-6.35-23.82.01l-11.28,11.04c-11.28,12.76-1.21,22.7,7.49,32.71,4.29,5.12,4.95,12.37,1.64,18.18-4.97,8.94-8.91,18.42-11.73,28.26-1.77,6.35-7.24,10.97-13.8,11.66-12.67.55-28.05,1.48-28.47,17.76v15.67c0,8.67,6.62,15.9,15.26,16.7,10.66.93,23.49,0,27.01,12.83,2.82,9.83,6.75,19.3,11.73,28.22,3.3,5.78,2.68,13.01-1.55,18.15-8.94,9.8-18.25,21.15-7.59,32.7,9.53,9.53,19.11,22.98,33.64,12.12,8.25-6.9,16.74-16.59,28.26-10.04,8.95,4.99,18.44,8.92,28.29,11.77,6.36,1.75,10.98,7.24,11.66,13.8l1.17,13.11c.74,8.73,8.07,15.42,16.83,15.35h15.68c8.65-.01,15.88-6.63,16.66-15.26l1.17-13.11h0c.67-6.55,5.31-12.04,11.66-13.79,9.81-2.88,19.27-6.85,28.2-11.83,11.01-6.28,19.22,2.21,27.01,8.98h0c6.67,6.35,17.14,6.35,23.82-.01l11.28-11.08c6.13-6.12,6.59-15.9,1.04-22.56-6.9-8.25-16.59-16.74-10.04-28.26h0c4.99-8.94,8.92-18.41,11.73-28.25,3.01-12.45,16.43-12.05,26.88-12.83h0c8.65-.77,15.27-8.02,15.26-16.7v-15.67c-.01-8.65-6.63-15.88-15.26-16.66Z" style="fill: #7facea; stroke-width: 0px;"/>
  <path d="M304.12,340.71h-140.45c-4.36,0-8.31-2.58-10.07-6.57s-.98-8.65,1.97-11.86l123.53-134.61h-107.34c-6.08,0-11-4.92-11-11s4.92-11,11-11h132.36c4.36,0,8.31,2.58,10.07,6.57,1.76,3.99.98,8.65-1.97,11.86l-123.53,134.61h115.42c6.08,0,11,4.92,11,11s-4.92,11-11,11Z" style="fill: #fff; stroke-width: 0px;"/>
  <path d="M421.5,211.59h-88.75c-4.36,0-8.31-2.58-10.07-6.57-1.76-3.99-.98-8.65,1.97-11.86l71.83-78.28h-58.62c-6.08,0-11-4.92-11-11s4.92-11,11-11h83.64c4.36,0,8.31,2.58,10.07,6.57,1.76,3.99.98,8.65-1.97,11.86l-71.83,78.28h63.73c6.08,0,11,4.92,11,11s-4.92,11-11,11Z" style="fill: #fff; stroke-width: 0px;"/>
</svg>