<?xml version="1.0" encoding="UTF-8"?>
<svg id="Layer_1" data-name="Layer 1" xmlns="http://www.w3.org/2000/svg" viewBox="0 0 512 512">
  <path d="M440.44,71.57c-3.56-3.56-8.4-5.57-13.44-5.57H85c-5.04,0-9.87,2-13.43,5.57-3.56,3.56-5.57,8.4-5.57,13.43v342c0,5.04,2,9.87,5.57,13.43,3.56,3.56,8.4,5.57,13.43,5.57h342c5.04,0,9.87-2,13.44-5.57,3.56-3.56,5.56-8.4,5.56-13.43V85c0-5.04-2-9.87-5.56-13.43ZM83.93,83.93c.28-.28.67-.45,1.07-.45h342c.4,0,.79.16,1.07.44.28.28.45.67.45,1.07v44.86H83.48v-44.86c0-.4.16-.79.44-1.07ZM428.07,428.07c-.28.28-.67.45-1.07.45H85c-.4,0-.79-.16-1.07-.44-.28-.28-.45-.67-.45-1.07V151.22h345.04v275.78c0,.4-.16.79-.44,1.07Z" style="fill: #7facea; stroke-width: 0px;"/>
  <g>
    <path d="M106.4,116.34h0c-5.9,0-10.68-4.78-10.68-10.68s4.78-10.68,10.68-10.68h0c5.9,0,10.68,4.78,10.68,10.68s-4.78,10.68-10.68,10.68Z" style="fill: #7facea; stroke-width: 0px;"/>
    <path d="M133.9,116.34h0c-5.9,0-10.68-4.78-10.68-10.68s4.78-10.68,10.68-10.68h0c5.9,0,10.68,4.78,10.68,10.68s-4.78,10.68-10.68,10.68Z" style="fill: #7facea; stroke-width: 0px;"/>
    <path d="M161.41,116.34h0c-5.9,0-10.68-4.78-10.68-10.68s4.78-10.68,10.68-10.68h0c5.9,0,10.68,4.78,10.68,10.68s-4.78,10.68-10.68,10.68Z" style="fill: #7facea; stroke-width: 0px;"/>
  </g>
  <path d="M406.27,116.34h-205.94c-5.9,0-10.68-4.78-10.68-10.68s4.78-10.68,10.68-10.68h205.94c5.9,0,10.68,4.78,10.68,10.68s-4.78,10.68-10.68,10.68Z" style="fill: #7facea; stroke-width: 0px;"/>
  <path d="M200.19,323.08v-11.71c-1.91,1.2-3.93,2.21-6.03,3.04-7.75,3.1-17.98,4.81-28.79,4.81s-21.04-1.71-28.79-4.81c-2.1-.82-4.12-1.84-6.03-3.04v11.71c0,4.73,13.56,11.61,34.82,11.61s34.82-6.87,34.82-11.61h0ZM142.17,326.95c-1.03,0-2.01-.41-2.74-1.13-.73-.73-1.13-1.71-1.13-2.74s.41-2.01,1.13-2.74c.73-.73,1.71-1.13,2.74-1.13s2.01.41,2.74,1.13c.73.73,1.13,1.71,1.13,2.74s-.41,2.01-1.13,2.74c-.73.73-1.71,1.13-2.74,1.13Z" style="fill: #fff; stroke-width: 0px;"/>
  <path d="M165.38,288.26c21.25,0,34.82-6.87,34.82-11.61v-11.71c-1.91,1.2-3.93,2.21-6.03,3.04-7.75,3.1-17.98,4.81-28.79,4.81s-21.04-1.71-28.79-4.81c-2.1-.82-4.12-1.84-6.03-3.04v11.71c0,4.73,13.56,11.61,34.82,11.61h0ZM142.17,272.79c1.03,0,2.01.41,2.74,1.13.73.73,1.13,1.71,1.13,2.74s-.41,2.01-1.13,2.74c-.73.73-1.71,1.13-2.74,1.13s-2.01-.41-2.74-1.13c-.73-.73-1.13-1.71-1.13-2.74s.41-2.01,1.13-2.74c.73-.73,1.71-1.13,2.74-1.13Z" style="fill: #fff; stroke-width: 0px;"/>
  <path d="M165.38,311.48c21.25,0,34.82-6.87,34.82-11.61v-11.71c-1.91,1.2-3.93,2.21-6.03,3.04-7.75,3.1-17.98,4.81-28.79,4.81s-21.04-1.71-28.79-4.81c-2.1-.82-4.12-1.84-6.03-3.04v11.71c0,4.73,13.56,11.61,34.82,11.61h0ZM142.17,296c1.03,0,2.01.41,2.74,1.13.73.73,1.13,1.71,1.13,2.74s-.41,2.01-1.13,2.74c-.73.73-1.71,1.13-2.74,1.13s-2.01-.41-2.74-1.13c-.73-.73-1.13-1.71-1.13-2.74s.41-2.01,1.13-2.74c.73-.73,1.71-1.13,2.74-1.13Z" style="fill: #fff; stroke-width: 0px;"/>
  <path d="M252.83,231.1l-10.94-10.94-19.15,19.15h0c-.73.73-1.71,1.13-2.74,1.13s-2.01-.41-2.74-1.13l-1.6-1.6v19.62h19.62l-1.6-1.6c-.73-.73-1.13-1.71-1.13-2.74s.41-2.01,1.13-2.74l19.15-19.15Z" style="fill: #fff; stroke-width: 0px;"/>
  <path d="M235.29,319.13h-19.62v19.62l1.6-1.6c.73-.73,1.71-1.13,2.74-1.13s2.01.41,2.74,1.13l19.15,19.15,10.94-10.94-19.15-19.15c-.73-.73-1.13-1.71-1.13-2.74s.41-2.01,1.13-2.74l1.6-1.6Z" style="fill: #fff; stroke-width: 0px;"/>
  <path d="M200.19,253.45c0,6.41-15.59,11.61-34.82,11.61s-34.82-5.2-34.82-11.61,15.59-11.61,34.82-11.61,34.82,5.2,34.82,11.61" style="fill: #fff; stroke-width: 0px;"/>
  <path d="M323.99,218.63c0,4.27-3.46,7.74-7.74,7.74s-7.74-3.46-7.74-7.74,3.46-7.74,7.74-7.74,7.74,3.46,7.74,7.74" style="fill: #fff; stroke-width: 0px;"/>
  <path d="M308.51,288.26v27.08c0,1.03-.41,2.01-1.13,2.74-.73.73-1.71,1.13-2.74,1.13h-2.27l13.87,13.87,13.87-13.87h-2.27c-1.03,0-2.01-.41-2.74-1.13-.73-.73-1.13-1.71-1.13-2.74v-27.08h-15.47Z" style="fill: #fff; stroke-width: 0px;"/>
  <path d="M349.84,364.57c-11.43-9.56-24.03-14.4-37.45-14.4s-26.02,4.85-37.45,14.4c-4.47,3.75-8.5,8-11.99,12.67,3.49,4.68,7.52,8.93,11.99,12.67,11.43,9.56,24.03,14.4,37.45,14.4s26.02-4.85,37.45-14.4c4.47-3.75,8.5-8,11.99-12.67-3.49-4.68-7.52-8.93-11.99-12.67ZM312.38,396.58c-5.13,0-10.05-2.04-13.68-5.66-3.63-3.63-5.66-8.55-5.66-13.68s2.04-10.05,5.66-13.68c3.63-3.63,8.55-5.66,13.68-5.66s10.05,2.04,13.68,5.66c3.63,3.63,5.66,8.55,5.66,13.68,0,5.13-2.05,10.04-5.67,13.67-3.63,3.63-8.54,5.67-13.67,5.67Z" style="fill: #fff; stroke-width: 0px;"/>
  <path d="M349.47,208.18c-.67-2.15-1.56-4.23-2.63-6.2-.4-.73-.55-1.58-.43-2.4.12-.83.5-1.59,1.09-2.18l5.84-5.84-10-10-5.84,5.84c-.59.59-1.36.97-2.18,1.09-.83.12-1.67-.03-2.4-.43-1.98-1.08-4.06-1.96-6.2-2.64-.79-.25-1.47-.74-1.96-1.4-.49-.66-.75-1.47-.75-2.29v-9.51h-15.47v9.51c0,.82-.26,1.63-.75,2.29-.49.66-1.17,1.15-1.96,1.4-2.15.67-4.23,1.56-6.2,2.64-.73.4-1.58.55-2.4.43-.83-.12-1.59-.5-2.18-1.09l-5.84-5.84-10,10,5.84,5.84c.59.59.97,1.36,1.09,2.18.12.83-.03,1.67-.43,2.4-1.08,1.98-1.96,4.06-2.64,6.2-.25.79-.74,1.47-1.4,1.96-.66.49-1.47.75-2.29.75h-9.51v15.47h9.51c.82,0,1.63.26,2.29.75.66.49,1.15,1.17,1.4,1.96.67,2.15,1.56,4.23,2.64,6.2.4.73.55,1.58.43,2.4-.12.83-.5,1.59-1.09,2.18l-5.84,5.84,10,10,5.84-5.84c.59-.59,1.36-.97,2.18-1.09.83-.12,1.67.03,2.4.43,1.98,1.08,4.06,1.96,6.2,2.64.79.25,1.47.74,1.96,1.4.49.66.75,1.47.75,2.29v9.51h15.47v-9.51c0-.82.26-1.63.75-2.29.49-.66,1.17-1.15,1.96-1.4,2.15-.67,4.23-1.56,6.2-2.64.73-.4,1.58-.55,2.4-.43.83.12,1.59.5,2.18,1.09l5.84,5.84,10-10-5.84-5.84c-.59-.59-.97-1.36-1.09-2.18-.12-.83.03-1.67.43-2.4,1.08-1.98,1.96-4.06,2.64-6.2.25-.79.74-1.47,1.4-1.96.66-.49,1.47-.75,2.29-.75h9.51v-15.47h-9.51c-.82,0-1.63-.26-2.29-.75-.66-.49-1.15-1.18-1.4-1.96h0ZM316.24,249.58c-8.21,0-16.08-3.26-21.88-9.06s-9.06-13.68-9.06-21.88,3.26-16.08,9.06-21.88c5.8-5.8,13.68-9.06,21.88-9.06s16.08,3.26,21.88,9.06c5.8,5.8,9.06,13.68,9.06,21.88,0,8.21-3.27,16.07-9.07,21.87-5.8,5.8-13.67,9.07-21.87,9.07h0Z" style="fill: #fff; stroke-width: 0px;"/>
  <path d="M316.25,195.42c-6.16,0-12.06,2.45-16.41,6.8-4.35,4.35-6.8,10.26-6.8,16.41s2.45,12.06,6.8,16.41c4.35,4.35,10.26,6.8,16.41,6.8s12.06-2.45,16.41-6.8c4.35-4.35,6.8-10.26,6.8-16.41,0-6.15-2.45-12.05-6.81-16.4-4.35-4.35-10.25-6.8-16.4-6.81ZM316.25,234.11c-4.1,0-8.04-1.63-10.94-4.53-2.9-2.9-4.53-6.84-4.53-10.94s1.63-8.04,4.53-10.94c2.9-2.9,6.84-4.53,10.94-4.53s8.04,1.63,10.94,4.53c2.9,2.9,4.53,6.84,4.53,10.94,0,4.1-1.64,8.04-4.54,10.94-2.9,2.9-6.83,4.53-10.94,4.54Z" style="fill: #fff; stroke-width: 0px;"/>
  <path d="M312.38,365.63c-3.08,0-6.03,1.22-8.21,3.4-2.18,2.18-3.4,5.13-3.4,8.21s1.22,6.03,3.4,8.21c2.18,2.18,5.13,3.4,8.21,3.4s6.03-1.22,8.21-3.4c2.18-2.18,3.4-5.13,3.4-8.21,0-3.08-1.23-6.03-3.4-8.2-2.18-2.18-5.12-3.4-8.2-3.4ZM312.38,381.11c-1.03,0-2.01-.41-2.74-1.13-.73-.73-1.13-1.71-1.13-2.74s.41-2.01,1.13-2.74c.73-.73,1.71-1.13,2.74-1.13s2.01.41,2.74,1.13c.73.73,1.13,1.71,1.13,2.74s-.41,2.01-1.13,2.74c-.73.73-1.71,1.13-2.74,1.13Z" style="fill: #fff; stroke-width: 0px;"/>
</svg>