<?xml version="1.0" encoding="UTF-8"?>
<svg id="Layer_1" data-name="Layer 1" xmlns="http://www.w3.org/2000/svg" viewBox="0 0 512 512">
  <defs>
    <style>
      .cls-1 {
        fill: #fff;
      }

      .cls-2 {
        fill: #7facea;
      }
    </style>
  </defs>
  <path class="cls-2" d="M440.44,71.57c-3.56-3.56-8.4-5.57-13.44-5.57H85c-5.04,0-9.87,2-13.43,5.57-3.56,3.56-5.57,8.4-5.57,13.43v342c0,5.04,2,9.87,5.57,13.43,3.56,3.56,8.4,5.57,13.43,5.57h342c5.04,0,9.87-2,13.44-5.57,3.56-3.56,5.56-8.4,5.56-13.43V85c0-5.04-2-9.87-5.56-13.43ZM83.93,83.93c.28-.28.67-.45,1.07-.45h342c.4,0,.79.16,1.07.44.28.28.45.67.45,1.07v44.86H83.48v-44.86c0-.4.16-.79.44-1.07ZM428.07,428.07c-.28.28-.67.45-1.07.45H85c-.4,0-.79-.16-1.07-.44-.28-.28-.45-.67-.45-1.07V151.22h345.04v275.78c0,.4-.16.79-.44,1.07Z"/>
  <g>
    <path class="cls-2" d="M106.4,116.34h0c-5.9,0-10.68-4.78-10.68-10.68s4.78-10.68,10.68-10.68h0c5.9,0,10.68,4.78,10.68,10.68s-4.78,10.68-10.68,10.68Z"/>
    <path class="cls-2" d="M133.9,116.34h0c-5.9,0-10.68-4.78-10.68-10.68s4.78-10.68,10.68-10.68h0c5.9,0,10.68,4.78,10.68,10.68s-4.78,10.68-10.68,10.68Z"/>
    <path class="cls-2" d="M161.41,116.34h0c-5.9,0-10.68-4.78-10.68-10.68s4.78-10.68,10.68-10.68h0c5.9,0,10.68,4.78,10.68,10.68s-4.78,10.68-10.68,10.68Z"/>
  </g>
  <path class="cls-2" d="M406.27,116.34h-205.94c-5.9,0-10.68-4.78-10.68-10.68s4.78-10.68,10.68-10.68h205.94c5.9,0,10.68,4.78,10.68,10.68s-4.78,10.68-10.68,10.68Z"/>
  <g>
    <circle class="cls-1" cx="174.1" cy="216.26" r="9.05" transform="translate(-49.67 51.93) rotate(-14.87)"/>
    <circle class="cls-1" cx="150.63" cy="216.26" r="9.05"/>
    <path class="cls-1" d="M319.14,207.21h-119.92c-5,0-9.05,4.05-9.05,9.05s4.05,9.05,9.05,9.05h119.92c5,0,9.05-4.05,9.05-9.05s-4.05-9.05-9.05-9.05Z"/>
    <path class="cls-1" d="M380.48,249.87c7.31,0,13.25-5.95,13.25-13.25v-40.72c0-7.31-5.95-13.25-13.25-13.25h-248.96c-7.31,0-13.25,5.95-13.25,13.25v40.72c0,7.31,5.95,13.25,13.25,13.25h3.36v8.51h-3.36c-7.31,0-13.25,5.95-13.25,13.25v40.72c0,7.31,5.95,13.25,13.25,13.25h3.36v8.51h-3.36c-7.31,0-13.25,5.95-13.25,13.25v40.72c0,7.31,5.95,13.25,13.25,13.25h248.96c7.31,0,13.25-5.95,13.25-13.25v-40.72c0-7.31-5.95-13.25-13.25-13.25h-3.36v-8.51h3.36c7.31,0,13.25-5.95,13.25-13.25v-40.72c0-7.31-5.95-13.25-13.25-13.25h-3.36v-8.51h3.36ZM385.63,347.38v40.72c0,2.84-2.3,5.15-5.15,5.15h-248.96c-2.84,0-5.15-2.3-5.15-5.15v-40.72c0-2.84,2.3-5.15,5.15-5.15h248.96c2.84,0,5.15,2.3,5.15,5.15ZM385.63,271.64v40.72c0,2.84-2.3,5.15-5.15,5.15h-248.96c-2.84,0-5.15-2.3-5.15-5.15v-40.72c0-2.84,2.3-5.15,5.15-5.15h248.96c2.84,0,5.15,2.3,5.15,5.15ZM126.37,236.62v-40.72c0-2.84,2.3-5.15,5.15-5.15h248.96c2.84,0,5.15,2.3,5.15,5.15v40.72c0,2.84-2.3,5.15-5.15,5.15h-248.96c-2.84,0-5.15-2.3-5.15-5.15Z"/>
    <circle class="cls-1" cx="174.1" cy="292" r="9.05" transform="translate(-112.21 108.69) rotate(-26.57)"/>
    <circle class="cls-1" cx="150.63" cy="292" r="9.05"/>
    <path class="cls-1" d="M199.23,301.05h119.92c5,0,9.05-4.05,9.05-9.05s-4.05-9.05-9.05-9.05h-119.92c-5,0-9.05,4.05-9.05,9.05s4.05,9.05,9.05,9.05Z"/>
    <circle class="cls-1" cx="174.1" cy="367.74" r="9.05" transform="translate(-146.08 116.68) rotate(-26.57)"/>
    <circle class="cls-1" cx="150.63" cy="367.74" r="9.05"/>
    <path class="cls-1" d="M199.23,376.79h119.92c5,0,9.05-4.05,9.05-9.05s-4.05-9.05-9.05-9.05h-119.92c-5,0-9.05,4.05-9.05,9.05s4.05,9.05,9.05,9.05Z"/>
  </g>
</svg>